Format : AVI
Format/Info : Audio Video Interleave
File size : 699 MiB
Duration : 1h 52mn
Overall bit rate : 869 Kbps
Writing application : VirtualDubMod 1.5.4.1 (build 2178/release)
Writing library : VirtualDubMod build 2178/release

Video
ID : 0
Format : MPEG-4 Visual
Format settings, BVOP : Yes
Format settings, QPel : No
Format settings, GMC : No warppoints
Format settings, Matrix : Default (H.263)
Muxing mode : Packed bitstream
Codec ID : DX50
Codec ID/Hint : DivX 5
Duration : 1h 52mn
Bit rate : 734 Kbps
Width : 720 pixels
Height : 304 pixels
Display aspect ratio : 2.35:1
Frame rate : 25.000 fps
Resolution : 24 bits
Colorimetry : 4:2:0
Scan type : Progressive
Bits/(Pixel*Frame) : 0.134
Stream size : 590 MiB (84%)
Writing library : DivX 6.8.4

Audio
ID : 1
Format : MPEG Audio
Format version : Version 1
Format profile : Layer 3
Codec ID : 55
Codec ID/Hint : MP3
Duration : 1h 52mn
Bit rate mode : Constant
Bit rate : 128 Kbps
Channel(s) : 2 channels
Sampling rate : 48.0 KHz
Resolution : 16 bits
Stream size : 103 MiB (15%)
Alignment : Aligned on interleaves
Interleave, duration : 80 ms (2.00 video frames)
Interleave, preload duration : 504 ms
Writing library : LAME3.98r
Encoding settings : -m j -V 4 -q 2 -lowpass 17 -b 128
Language : English

staring
Brooklynn Proulx
Jeffrey DeMunn
Julianne Moore
Frances Conroy
Jonathan Rhys-Meyers

What starts out as an involving, low-key psychological thriller about a young man who exhibits symptoms of multiple-personality disorder abruptly turns into a hysterical, melodramatic tale about God-fearing mountain folk, a firebrand preacher whose children were mysteriously spared the ravages of a flu epidemic, and the sins of the fathers being visited upon their children. By this time, the overwrought plot is as confused and confusing as the patient‘s disturbed mind.
 
http://www.imdb.com/title/tt1179069/

screens
 
http://img585.imageshack.us/img585/6918/shelterdivxviceavisnaps.jpg 
http://img29.imageshack.us/img29/6918/shelterdivxviceavisnaps.jpg 
http://img12.imageshack.us/img12/6918/shelterdivxviceavisnaps.jpg 
http://img441.imageshack.us/img441/6918/shelterdivxviceavisnaps.jpg 